<svg xmlns="http://www.w3.org/2000/svg" width="48" height="48" fill="none" viewBox="0 0 24 24">
  <path stroke="#709FDC" stroke-linecap="round" stroke-linejoin="round" stroke-miterlimit="10" stroke-width="1.3"
        d="M22.71 5.84v5.46c0 1.36-.45 2.51-1.25 3.3-.8.8-1.94 1.26-3.3 1.26v1.94a.91.91 0 0 1-1.41.76l-1.04-.69c.1-.33.14-.7.14-1.08v-4.36c0-2.19-1.46-3.64-3.65-3.64H4.93c-.15 0-.3 0-.43.02V5.84c0-2.73 1.82-4.55 4.55-4.55h9.11c2.73 0 4.55 1.82 4.55 4.55Z"/>
  <path stroke="#709FDC" stroke-linecap="round" stroke-linejoin="round" stroke-miterlimit="10" stroke-width="1.3"
        d="M15.85 12.43v4.36c0 .39-.05.75-.14 1.08-.4 1.58-1.7 2.56-3.5 2.56H9.28L6.05 22.6a.72.72 0 0 1-1.12-.6v-1.56c-1.1 0-2-.36-2.64-1-.64-.64-1-1.55-1-2.64v-4.36c0-2.04 1.26-3.44 3.21-3.62l.43-.02h7.27c2.19 0 3.65 1.45 3.65 3.64Z"/>
  <path fill="#B9D5FD" stroke="#709FDC" stroke-linecap="round" stroke-linejoin="round" stroke-miterlimit="10"
        stroke-width="1.3"
        d="M14.1 17.71h1.75v4.09c0 .6.75.88 1.14.43l4.3-4.88a.65.65 0 0 0-.5-1.1h-1.75v-4.08c0-.6-.75-.88-1.14-.43l-4.3 4.88a.66.66 0 0 0 .5 1.1Z"/>
</svg>
